<svg width="200" height="84" fill="none" xmlns="http://www.w3.org/2000/svg"><path d="M68.3 58.3V25.4h20.3V31H74.1v8.1h7.4v5.6h-7.4v13.5h-5.8v.1z" fill="#302F3F"/><path fill-rule="evenodd" clip-rule="evenodd" d="M80.4 43.1c-.5 1.4-.8 2.8-.8 4.3 0 2 .5 3.9 1.5 5.6 1 1.7 2.3 3 4 3.9 1.7 1 3.6 1.4 5.7 1.4 1.8 0 3.5-.4 5.1-1.2 1.6-.8 2.8-1.8 3.8-3.2L96 51c-.6.8-1.3 1.4-2.3 1.8-.9.4-1.9.6-2.9.6-1.5 0-2.8-.4-3.8-1.2-1-.8-1.7-1.9-2-3.2h16c.1-.5.1-1.1.1-1.7 0-2-.4-3.8-1.3-5.5-.9-1.7-2.2-3-3.8-4-1.6-1-3.5-1.5-5.5-1.5-1.6 0-3.1.3-4.5.9-1.4.6-2.5 1.4-3.4 2.4-1 .9-1.7 2.1-2.2 3.5zm15.2 1.8H85.1c.4-1.1 1.1-2.1 2-2.7 1-.7 2.1-1 3.3-1 1.3 0 2.5.4 3.4 1.1 1.1.7 1.6 1.6 1.8 2.6z" fill="#302F3F"/><path fill-rule="evenodd" clip-rule="evenodd" d="M98.3 43.1c-.5 1.4-.8 2.8-.8 4.3 0 2 .5 3.9 1.5 5.6 1 1.7 2.3 3 4 3.9 1.7 1 3.6 1.4 5.7 1.4 1.8 0 3.5-.4 5.1-1.2 1.6-.8 2.8-1.8 3.8-3.2l-3.7-3c-.6.8-1.3 1.4-2.3 1.8-.9.4-1.9.6-2.9.6-1.5 0-2.8-.4-3.8-1.2-1-.8-1.7-1.9-2-3.2h16c.1-.5.1-1.1.1-1.7 0-2-.4-3.8-1.3-5.5-.9-1.7-2.2-3-3.8-4-1.6-1-3.5-1.5-5.5-1.5-1.6 0-3.1.3-4.5.9-1.4.6-2.5 1.4-3.4 2.4-1 1-1.7 2.2-2.2 3.6zm15.2 1.8H103c.4-1.1 1.1-2.1 2-2.7 1-.7 2.1-1 3.3-1 1.3 0 2.5.4 3.4 1.1 1.1.7 1.6 1.6 1.8 2.6z" fill="#302F3F"/><path d="M117.2 50.3c0 2.6.6 4.5 2 5.9 1.3 1.4 3.2 2.1 5.6 2.1.9 0 1.9-.1 3.2-.4v-5c-.4.1-.9.1-1.4.1-1.4 0-2.3-.3-2.8-1s-.7-1.8-.7-3.4v-23h-5.7v24.7h-.2z" fill="#302F3F"/></svg>