<svg width="200" height="84" fill="none" xmlns="http://www.w3.org/2000/svg"><path d="M98.6 64.9c-.3-.1-.5-.3-.8-.4-1.8-.6-2.7-2.2-2.2-4.2.3-1.5 2-2.6 3.7-2.4.2 0 .5.3.6.6l1.2 2.7c.4.8.9 1 1.5.3.8-.9 1.3-2 1.9-3.1.5-1 .9-2.1 1.4-3.1.4-.7.2-1.4-.1-2.1-1.6-3.9-3.2-7.9-4.8-11.8-1.2-2.8-2-5.9-4.1-8.5h9.4c-.6.7-1.2 1.3-1.7 2-.2.3-.3.7-.2 1 1.5 3.7 2.9 7.3 4.4 11 0 .1.1.1.2.3.7-1.7 1.4-3.3 2-4.9.5-1.2 1-2.5 1.5-3.8.3-.8.3-1.5-.2-2.2-.7-1.1-1.3-2.2-2.1-3.4h6.7c-.7 1.1-1.4 2-2 3-.8 1.4-1.5 2.7-2.1 4.2l-5.7 14.1c-1.1 2.6-2.2 5.1-3.5 7.6-.7 1.4-2 2.3-3.5 2.6-.3.1-.5.3-.7.4-.3.1-.6.1-.8.1zm-78.5-38h7.2c2.5.1 2.5.1 3.5 2.5 2.1 5 4.3 9.9 6.5 15 .4-.8.7-1.5 1-2.2 1.5-3.9 3.1-7.8 4.6-11.7.3-.7.6-1.3.8-2 .7-1.8.7-1.8 2.6-1.8h6.4c-1.1.8-2.1 1.5-2.9 2.2-.3.3-.6.8-.6 1.2v19.3c0 .4.3.9.6 1.1.9.7 1.9 1.4 3 2.2H40.1c1.1-.8 2.1-1.5 3-2.2.3-.2.5-.7.5-1V32.1c0-.1 0-.1-.2-.3C40.7 39 38 46 35.1 53.2c-3.5-7.6-6.4-15.1-9.9-22.4-.1 0-.2 0-.3.1v1c0 4.7.1 9.4-.1 14-.1 2 .7 3.3 2.1 4.5.9.7 1.6 1.6 2.5 2.6h-10c.9-.9 1.6-1.6 2.3-2.4.6-.6 1.2-1 1.7-1.6.3-.4.5-1 .5-1.4V31.3c0-.5-.3-1.1-.7-1.4-1-1.1-2-2-3.1-3zM149.5 53h-10.7c.8-.6 1.5-1 2-1.6.3-.3.7-.8.7-1.2V36.1c0-1.2-1.2-1.4-1.7-2.1-.3-.3-.7-.5-1.2-1h8v3.9c.8-1 1.5-2.2 2.5-3.1 2.1-1.8 6.7-1.9 8.5 1.2 1.1 1.8 1.3 3.8 1.3 5.8 0 3 0 6-.1 8.9 0 .8.2 1.4 1 1.9.6.3 1.1.8 1.8 1.3H151c.5-.4.8-.8 1.3-1.1 1-.6 1.4-1.4 1.4-2.5 0-2.4.1-4.8.1-7.2 0-1.4-.2-2.7-.4-4.1-.2-1.2-.8-2.2-2.1-2.6-1.3-.4-2.5.1-3.5 1-.8.8-1.3 1.6-1.2 2.9.1 3.5.1 6.9 0 10.4 0 .8.2 1.4 1 1.8.6.4 1.1.9 1.9 1.5z" fill="#302E3F"/><path d="M97.4 53H86.7c.8-.6 1.5-1.1 2.2-1.7.3-.2.6-.6.6-.9 0-3.8 0-7.6-.1-11.4 0-.8-.4-1.6-.8-2.3-.6-1.2-2.5-1.7-3.7-1-1.5.8-2.6 1.9-2.5 3.9.1 3.4.1 6.8 0 10.3 0 .7.2 1.2.8 1.6.6.4 1.2.9 2 1.4H74.6c.7-.5 1.2-1 1.9-1.3.6-.4.9-.8.9-1.5V36.3c0-.5-.3-1-.6-1.3-.6-.6-1.4-1.2-2.2-1.9h7.9v4.3c.7-1 1.1-2 1.8-2.8 1.7-1.9 3.9-2.2 6.2-1.6 2.2.5 3.3 2.1 3.8 4.1.3 1.4.4 2.8.5 4.2 0 2.9 0 5.8-.1 8.8 0 .7.2 1.2.9 1.6.5.2 1 .7 1.8 1.3zM137 42.8c-.1 2.2-.3 4.2-1.3 6-1.2 2.2-3 3.6-5.3 4.1-3.1.7-6.1.7-8.9-1.1-2.2-1.4-3.4-3.4-3.9-5.8-.4-2-.4-4.1 0-6.1.8-4.1 4-6.9 8.2-7.2 1.8-.1 3.6-.1 5.4.6 3.4 1.2 5.1 3.8 5.7 7.2 0 .8 0 1.6.1 2.3zm-5.6.2h-.3c.1-2.4-.1-4.8-.9-7.1-.6-1.7-1.7-2.6-3.3-2.6-1.5 0-2.6.9-3.2 2.6-1 3.3-1.1 6.6-.8 10 .1 1.6.5 3.2 1 4.8.6 1.9 2.4 2.6 4.2 1.9 1.2-.5 1.9-1.5 2.1-2.7.6-2.4.9-4.6 1.2-6.9zm-65.9-.5c0-1.9.1-3.6 0-5.3-.2-2.5-1.6-3.9-3.9-3.9-.7 0-1 .2-1.3.8-.4.9-.8 1.7-1.3 2.6-.4.9-.9 1.7-1.4 2.8-.8-1.9-1.5-3.7-2.3-5.7 1.9-.4 3.6-1 5.4-1.2 2.1-.2 4.2-.3 6.2.5 2.3.9 3.2 2.9 3.4 5 .2 3 0 6 0 9v1.8c.1 1.3.6 1.7 2 1.6h.5c-.4 1.6-1.8 2.6-3.6 2.6-2.1 0-3.2-1-3.8-3.6-.6.7-1.2 1.6-1.9 2.3-1.8 1.6-5.1 1.8-7 .4-2-1.5-2.7-4.4-1.8-6.8 1.5-4 6.5-5.1 9.9-3.5.2.3.5.4.9.6zm-.1 3.4c.1-.8.1-1.6.1-2.4 0-.2-.2-.6-.4-.7-1.6-.7-3.7-.2-4.7 1.2-.9 1.3-1.2 2.7-.9 4.2.2 1 .7 1.9 1.8 2.3 1.9.7 4.1-.8 4.2-2.8-.1-.6-.1-1.2-.1-1.8zm102.9-3.7c0 3 .4 5.7 3 7.3 2.9 1.8 5.7.8 8.5-1-.9 2.2-2.3 3.6-4.3 4.3-3.3 1-6.4.7-9.2-1.5-1.5-1.2-2.5-2.8-2.9-4.7-.6-3.1-.7-6.2.8-9.1 1.3-2.7 3.5-4.2 6.4-4.7 2.4-.4 4.7-.1 6.8 1.2 2.7 1.6 3.6 5.1 3.1 7.8 0 .2-.5.4-.8.4h-11.4zm0-1h7c.2 0 .4-.3.5-.4.1-1.9.1-3.8-.7-5.6-.5-1.1-1.3-1.8-2.5-1.8-1.2-.1-2.3.4-2.9 1.5-1.2 1.8-1.4 4-1.4 6.3z" fill="#302E3F"/></svg>