<svg width="200" height="84" fill="none" xmlns="http://www.w3.org/2000/svg"><path d="M25.655 42.116V42A21.162 21.162 0 0147.35 20.633c12.687 0 21.541 9.655 21.541 21.241v.116a21.164 21.164 0 01-21.657 21.377c-12.696 0-21.579-9.626-21.579-21.251zm35.59 0V42c0-8.023-5.852-14.695-14.05-14.695-8.196 0-13.932 6.546-13.932 14.58V42c0 8.023 5.794 14.637 14.049 14.637 8.255 0 13.97-6.488 13.97-14.521h-.038zm16.442-20.768h7.26v34.7h21.725v6.605H77.706l-.02-41.305zm36.95 0h7.261v41.305h-7.261V21.348zm16.472 20.768V42a21.165 21.165 0 0121.656-21.367c12.697 0 21.541 9.655 21.541 21.242v.115a21.165 21.165 0 01-21.656 21.367c-12.687.01-21.541-9.616-21.541-21.241zm35.589 0V42c0-8.023-5.841-14.695-14.048-14.695s-13.933 6.546-13.933 14.58V42c0 8.023 5.851 14.637 14.048 14.637 8.198 0 13.933-6.488 13.933-14.521z" fill="#302E3F"/></svg>