<svg width="200" height="84" fill="none" xmlns="http://www.w3.org/2000/svg"><path fill-rule="evenodd" clip-rule="evenodd" d="M21.726 36.342l16.993-8.805 17.186 8.805-17.186 8.835-16.994-8.835zM123.76 40.62v-.212c0-2.897 1.709-3.862 4.587-3.62v-5.301c-6.894-.416-10.158 3.022-10.158 8.921v.212h-3.118v5.301h3.118v16.047h5.571V45.92h6.411v16.047h5.552V45.92h4.577v-5.3h-4.577v-.213c0-2.897 1.67-3.862 4.577-3.62v-5.301c-6.884-.416-10.158 3.022-10.158 8.921v.212h-6.411.029zm-38.958 5.794a7.387 7.387 0 002.848-5.996c0-5.002-4.074-8.41-9.201-8.41H66.555v29.931h12.85c5.253 0 9.443-3.534 9.443-8.69a7.724 7.724 0 00-4.045-6.816v-.02zm-6.324-8.864a3.14 3.14 0 013.234 3.292 3.177 3.177 0 01-3.234 3.293h-5.967v-6.566l5.967-.019zm.898 18.857h-6.865v-7.01h6.865a3.514 3.514 0 010 7.029v-.02zm26.851-15.854v11.586c0 3.708-2.038 5.3-4.76 5.3-2.52 0-4.287-1.496-4.287-4.402V40.552h-5.57v13.15c0 5.687 3.562 8.835 8.178 8.835 2.896 0 5.155-1.082 6.411-2.993v2.394h5.571V40.552h-5.542zm57.216 12.938h-16.307c.811 2.81 3.147 4.007 6.053 4.007a6.006 6.006 0 004.828-2.124l4.519 2.558a10.917 10.917 0 01-9.434 4.606c-7.251 0-11.837-4.915-11.837-11.287a10.962 10.962 0 0111.413-11.287c6.382 0 10.939 5.001 10.939 11.287.005.763-.053 1.525-.174 2.278v-.038zm-10.736-8.564a5.36 5.36 0 00-5.658 4.315h11.026a5.22 5.22 0 00-5.368-4.277v-.038zm19.001-.696v-3.678h-5.571v21.386h5.571V51.732c0-4.499 3.659-5.793 6.566-5.426v-6.14c-2.723 0-5.456 1.207-6.566 4.103v-.039zM38.719 60.277l-11.587-6.285-5.397 2.896 16.993 9.202 17.177-9.124-5.465-2.897-11.721 6.208zM27.132 44.076l11.587 5.697 11.721-5.697 5.465 2.655-17.186 8.361-16.994-8.36 5.407-2.656z" fill="#302E3F"/></svg>