<svg width="200" height="84" fill="none" xmlns="http://www.w3.org/2000/svg"><path d="M57.121 34.353a13.382 13.382 0 013.602 9.414 13.382 13.382 0 01-3.602 9.423 11.973 11.973 0 01-9.047 3.776 10.37 10.37 0 01-8.525-4.22v3.611h-5.108V20.855h5.156V34.76a10.418 10.418 0 018.526-4.268 11.74 11.74 0 018.998 3.862zm-3.939 15.371a8.535 8.535 0 002.25-5.996 8.536 8.536 0 00-2.25-6.005 7.319 7.319 0 00-5.793-2.433 7.628 7.628 0 00-5.86 2.481 9.211 9.211 0 000 11.953 7.59 7.59 0 005.889 2.414 7.291 7.291 0 005.764-2.414zm36.313-3.987H69.77c.753 3.939 3.514 6.604 8.39 6.604 3.06-.052 6.04-.995 8.574-2.713l2.153 3.794a19.05 19.05 0 01-10.92 3.544c-9.462 0-13.517-6.605-13.517-13.257a13.006 13.006 0 013.562-9.423 12.417 12.417 0 019.327-3.747 12.118 12.118 0 018.902 3.418c2.289 2.298 3.467 5.388 3.467 9.327-.01.822-.08 1.642-.213 2.453zm-19.725-4.22h14.714a7.01 7.01 0 00-7.164-6.556c-3.891 0-6.797 2.627-7.55 6.556zm44.713-10.398h4.972v25.257h-4.972V52.91a10.872 10.872 0 01-8.632 4.055 11.819 11.819 0 01-9.037-3.862 13.517 13.517 0 01-3.573-9.52 12.908 12.908 0 013.563-9.375 12.04 12.04 0 019.037-3.698 10.776 10.776 0 018.642 4.123v-3.515zm-2.057 18.653a8.464 8.464 0 002.288-6.044 8.435 8.435 0 00-2.288-6.005 8.149 8.149 0 00-5.86-2.483 8.16 8.16 0 00-5.861 2.483 8.69 8.69 0 00-2.24 6.044 8.612 8.612 0 002.24 6.044 7.596 7.596 0 005.861 2.443 7.724 7.724 0 005.851-2.482h.009zm50.593-16.404a10.912 10.912 0 012.81 7.917v15.092h-5.156V42.135c0-4.45-2.24-6.894-5.793-6.894-3.756 0-6.334 2.771-6.334 7.03v14.105h-5.098V42.222c0-4.354-2.249-6.98-5.793-6.98-3.746 0-6.372 2.809-6.372 7.125v14.01h-5.214V31.119h5.059v3.64a8.598 8.598 0 017.638-4.364 8.468 8.468 0 017.782 4.644 10.677 10.677 0 019.133-4.645 9.491 9.491 0 017.338 2.974zm2.936 25.808H34.035v3.96h131.92v-3.96z" fill="#302E3F"/></svg>