<svg width="200" height="84" fill="none" xmlns="http://www.w3.org/2000/svg"><path d="M47.312 58.472a5.204 5.204 0 00-.647 10.196c.319.077.647.115.965.202h.647c.08-.033.16-.062.242-.087a5.195 5.195 0 00-1.207-10.311zm5.078-34.199l.358-.357a5.038 5.038 0 001.37-4.268 5.156 5.156 0 00-5.194-4.518 5.388 5.388 0 00-3.785 1.66L23.261 38.62l-.28.28a5.136 5.136 0 00-1.371 4.104 5.194 5.194 0 005.155 4.635h.57a5.793 5.793 0 003.418-1.729c7.174-7.212 14.386-14.463 21.637-21.637zm0 8.787a5.445 5.445 0 00-4.035 1.699c-3.863 3.862-7.609 7.656-11.432 11.441-1.091 1.13-2.26 2.211-3.312 3.34a5.011 5.011 0 00-1.361 4.433 5.185 5.185 0 008.738 2.896 1801.85 1801.85 0 0014.898-14.86 5 5 0 001.496-3.668c0-.319 0-.647-.087-.966a5.224 5.224 0 00-4.905-4.316zm125.942 24.871a3.167 3.167 0 00-1.042-1.93 9.372 9.372 0 00-1.69-1.13c-.811-.406-1.651-.686-2.462-1.092a5.345 5.345 0 01-.966-.598.969.969 0 01-.202-1.332c.087-.078.164-.203.28-.242.206-.148.439-.257.685-.319a3.863 3.863 0 012.134.155c.647.241 1.217.57 1.854.85.328-.647.647-1.371 1.052-2.018a.455.455 0 00-.164-.686 7.484 7.484 0 00-4.586-1.245 5.977 5.977 0 00-3.389 1.042 3.588 3.588 0 00-1.526 2.813c-.019.555.09 1.106.319 1.612.23.505.574.95 1.004 1.3.379.325.802.595 1.255.802.802.406 1.651.724 2.453 1.091.406.16.787.377 1.129.647a1.02 1.02 0 01.58 1.053 1.02 1.02 0 01-.821.878c-.155.068-.317.12-.483.155a4.052 4.052 0 01-2.22-.242 6.867 6.867 0 01-2.096-1.206l-1.525 2.375.116.125a7.655 7.655 0 007.898 1.371 3.864 3.864 0 002.375-2.5c.073-.211.127-.428.164-.647v-.966c-.126-.02-.126-.058-.126-.116zm-97.15-14.686a.415.415 0 00-.483.367l-2.896 8.458a50.385 50.385 0 00-1.815 5.793c-.029.193-.08.38-.155.56a.713.713 0 01-.164-.318c-.203-.724-.319-1.448-.56-2.182a1166.71 1166.71 0 00-4.19-12.398.336.336 0 00-.267-.29.338.338 0 00-.139 0h-3.06a.56.56 0 00-.28.05c.04.088.065.182.077.28 2.25 6.16 4.509 12.32 6.758 18.489a.387.387 0 00.358.28h2.819a.425.425 0 00.483-.329c2.056-5.715 4.151-11.393 6.246-17.118.203-.522.358-1.043.56-1.603-1.11.01-2.2.01-3.292-.038zm26.059-3.417c.603-.31 1.184-.662 1.738-1.053l-1.332-2.452h-.077l-.242.164a6.313 6.313 0 01-4.113 1.245 3.952 3.952 0 01-3.466-2.539 9.043 9.043 0 01-.241-1.081h9.587V31.89c-.241-2.694-1.931-5.32-5.436-5.561a6.692 6.692 0 00-6.401 3.022 7.318 7.318 0 00-1.12 4.026 6.875 6.875 0 004.992 6.932 8.253 8.253 0 006.111-.482zm-5.194-10.718a5.195 5.195 0 011.535-.077 2.618 2.618 0 012.095 2.83h-5.928a3.04 3.04 0 012.298-2.753zm-10.35 19.214a6.673 6.673 0 00-5.919 3.022 7.29 7.29 0 00-1.091 4.828 6.76 6.76 0 003.505 5.523 8.69 8.69 0 009.22-.966c.049 0 .049-.077.087-.116-.444-.81-.85-1.574-1.293-2.423l-.28.203A6.556 6.556 0 0192.7 59.64a3.958 3.958 0 01-4.422-2.896l-.126-.725h9.462a9.132 9.132 0 000-2.616 5.793 5.793 0 00-5.918-5.079zm2.51 5.475h-5.928a3.147 3.147 0 011.1-2.095 3.11 3.11 0 013.167-.532 2.617 2.617 0 011.66 2.627zm65.964-5.475a6.76 6.76 0 00-5.561 2.5 7.596 7.596 0 00-1.507 4.51 6.947 6.947 0 004.674 6.884 8.428 8.428 0 006.121-.28 7.634 7.634 0 002.056-1.246c-.444-.81-.888-1.612-1.293-2.423a6.452 6.452 0 01-3.505 1.458 4.152 4.152 0 01-3.582-1.255 3.683 3.683 0 01-.966-2.376h9.501v-2.21a5.72 5.72 0 00-3.718-5.206 5.717 5.717 0 00-2.22-.356zm2.501 5.475h-5.967a3.495 3.495 0 011.448-2.337 3.198 3.198 0 012.626-.396 2.582 2.582 0 011.893 2.733zM83.123 40.31a6.74 6.74 0 001.805.358 5.186 5.186 0 005.002-2.655c.043-.065.081-.133.115-.203v2.539h3.196V26.697h-3.36v6.044a5.493 5.493 0 01-.685 2.896 3.457 3.457 0 01-3.38 1.854 1.69 1.69 0 01-1.728-1.37 5.795 5.795 0 01-.164-1.488V26.62h-3.38v8.854c.008.528.057 1.054.146 1.574a3.765 3.765 0 002.433 3.263zm53.2 8.777v5.677a6.223 6.223 0 01-.396 2.26 3.706 3.706 0 01-3.35 2.539 1.835 1.835 0 01-2.173-1.69 6.332 6.332 0 01-.077-1.207v-7.975h-3.389v8.854a8.54 8.54 0 00.203 1.738 3.801 3.801 0 002.462 3.022 5.597 5.597 0 002.288.319 5.168 5.168 0 004.432-2.617s.087-.125.164-.203v2.453h3.225V48.604h-3.389v.483zm-25.49-.396a6.022 6.022 0 00-2.423-.367 5.233 5.233 0 00-4.548 2.617.6.6 0 01-.164.203v-2.501h-3.215v13.614h3.379V56a7.748 7.748 0 01.126-1.41 3.863 3.863 0 013.784-3.225 1.863 1.863 0 012.134 1.738c.064.441.09.887.077 1.333v7.81h3.341v-8.689a9.184 9.184 0 00-.154-1.767 3.567 3.567 0 00-2.337-3.099zM70.629 32.654h5.793c.57 0 .483.087.483-.483v-2.5h-6.276v-5.436h7.492v-2.897H67.172V40.31h3.418l.039-7.656zm52.688 26.783a2.211 2.211 0 01-2.298-2.172c-.077-1.854 0-3.669 0-5.513 0-.203.116-.203.242-.203h2.896v-2.703h-3.099v-3.862h-2.984c-.28 0-.318.087-.318.366v3.225c.017.132.017.265 0 .396h-1.815v2.704h1.776v1.767c0 1.612 0 3.263.077 4.875a4.142 4.142 0 002.82 3.785 6.244 6.244 0 002.452.483h1.371v-3.1c-.473-.048-.801 0-1.12-.048zm-6.285-21.984h-.618a1.148 1.148 0 01-1.217-.966 10.29 10.29 0 01-.077-1.081V21.338h-3.379v14.618c0 .514.038 1.027.116 1.535a3.26 3.26 0 001.931 2.655 6.448 6.448 0 003.263.329l-.019-3.022zm34.478 11.035c-.459 0-.918.04-1.371.116a4.675 4.675 0 00-3.215 2.984l-.164.405v-3.302h-3.225v13.614h3.389v-5.243a8.801 8.801 0 01.155-1.767 3.912 3.912 0 013.022-3.389 11.96 11.96 0 011.651-.116v-3.099c0-.087-.164-.203-.242-.203z" fill="#302E3F"/></svg>