<svg width="200" height="84" fill="none" xmlns="http://www.w3.org/2000/svg"><path fill-rule="evenodd" clip-rule="evenodd" d="M176.6 7.6c-1.7.2-3.4.5-5.1.5-1 0-2 0-3.1-.1-.9 0-1.7-.1-2.6-.1-.9 0-1.8 0-2.7.1-1.4 0-2.8.1-4.2 0h-4c-2-.2-3.9-.1-5.9.1-1.4.1-2.8.2-4.2.2-2.5 0-5-.2-7.5-.2-2 0-4 0-5.9.1h-2.8l-8.3-.2c-.2 0-.5 0-.7-.1-.3 0-.5-.1-.8-.1-1.4.2-2.8.3-4.2.4-1.4 0-3.1-.4-4.6-.4-.8 0-1.7.1-2.5.2-.9.1-1.7.2-2.6.2-2.2 0-4.3-.2-6.5-.2-1.2 0-2.3.1-3.5.2h-1.8c-1.6-.1-3.1-.3-4.7-.3-1.1 0-2.2.3-3.3.4-.6 0-1.1-.1-1.5-.2-.4-.1-.7-.2-1.1-.2-2.4 0-4.9.3-7.3.3-2.5 0-4.9 0-7.3-.2-2.9-.1-5.8-.2-8.8-.3-.3 0-.6.1-.9.2-.5 0-.8.1-1.2.1-1.1 0-2.3-.2-3.4-.2h-10s-3.7.2-5.5.2c-2.5 0-5.1-.1-7.6-.2-.4 0-.8.1-1.2.1h-9.9s-1.1-.9-1.2-1.4c-.2-.2-.2-.5-.1-.8.1-.3.3-.5.5-.6.1-.1.3-.1.5-.1 1.7 0 3.4.2 5.1.3.3.1.5.1.8 0 1.2-.4 2.4-.2 3.6-.1 1 .1 1.9.2 2.9 0 1.1-.1 2.3-.2 3.5-.2.6 0 1.2.2 1.8.2h9.9l9.4-.1h3.3c1.6 0 3.2.2 4.7.2s3.6-.3 5.3-.3c1.3 0 2.7.2 4.1.3 1.4 0 2.6.1 3.8.1h10.9c.9 0 1.8-.3 2.7-.4.4 0 .9 0 1.4.1.5.1 1 .1 1.5.1 3.6-.2 7.2-.1 10.9.1 1.9.2 3.7.1 5.6-.1 1.8-.2 3.6-.3 5.4-.1 1.4 0 2.9.1 4.3.2.6 0 1.2-.1 1.8-.2h5.4c.9 0 1.8.1 2.7.1h15.9c2.7 0 5.3.1 8 .2h8.4c2.1 0 4.2-.2 6.3-.2 1 0 2 .2 3 .2h9.2c.7-.1 1.4.4 1.5 1.1 0 .1.1.2.1.2 0 .9-.7 1.2-1.5 1.2h-3.9l-.3-.3zM31.1 9.3c-3.4 0-6.9-.2-10.3-.2V9h-1.7c-.3 0-.6.2-.8.5-.2.3-.3.6-.2 1v.1c0 .3.2.6.4.8.2.2.6.3.9.3H30l11.5-.1h7.2c.6.1 1.2.2 1.8.2 2.1-.5 4.3-.5 6.3 0 .3.1.7.1 1 0 .6-.6 1.3-.5 1.9-.4.2 0 .5.1.7.1.3 0 .6.1 1 .2.3.1.6.2.9.2 2-.1 4-.3 6-.3.4 0 .8 0 1.2.1.4.1.8.1 1.3.1 1 0 1.9-.2 2.9-.2h6.4c1.9 0 3.9.1 5.7.2 1.4.2 2.9.3 4.3.3 2-.4 4-.4 6 0 .4.1.9.1 1.3 0l5.1-.3c.4 0 .7.1 1.1.1h3c3.1.1 6.3.2 9.4.2 1.9 0 3.8-.3 5.7-.3.4 0 .9 0 1.3.1s.8.1 1.1.1h11.4c1.3 0 2.5.2 3.7.2 1.8 0 3.7-.1 5.5-.1h2.5c.6 0 1.2-.3 1.8-.3h9.4l5.1-.2c.6.2 1.2.3 1.8.3 1.4-.1 2.8-.3 4.1-.4.4 0 .9.1 1.3.2.5.2 1 .2 1.5.2 1.5-.5 3.1-.5 4.6 0 .3 0 .7 0 1-.2.3-.1.6-.1.8-.1.5.1 1.2.2 1.8.3h.4c.3 0 .6-.2.8-.4.2-.3.3-.6.2-.9.1-1.1-.6-1.1-1.3-1.1h-10.7c-.4 0-.7-.1-1.1-.2-.4-.1-.8-.1-1.2-.2-1.7.1-3.3.4-5 .4-.5 0-1.1-.1-1.6-.2s-1-.2-1.5-.2c-3.4.1-6.8.3-10.3.4-.5 0-1-.1-1.5-.2-.1-.2-.6-.3-1-.3-7.1 0-14.3.2-21.4.2-1.2.1-2.3 0-3.5 0H120c-.4-.1-.9-.2-1.3-.2-.6 0-1.1.3-1.6.3H109l-15.6.2h-5.8c-1.3 0-2.7-.2-4-.2-3.7-.2-7.3-.3-11-.3-1.9 0-3.9.3-5.9.3-.7 0-1.4 0-2.1-.1-.6-.1-1.2-.1-1.8-.1-.3 0-.6 0-.9.1-.3 0-.6.1-.8.1-1.4-.1-2.8-.2-4.1-.3h-.5c-2.5.1-5 0-7.4.1-1.6.1-3.2 0-4.8 0h-2.4c-3.6 0-7.4.2-10.8.2zm6.4 51.3c2.6-2.7 4-6.4 3.8-10.3l-.1-2c0-1.5 0-1.7-1.6-2-1.6-.1-3.3-.1-4.9.2h-.2c-.3 0-.5.2-.7.4-.2.2-.2.5-.2.8v4.4c.1 1.3-.5 2.5-1.6 3-1.5.7-3.3.1-4.2-1.3-.7-.7-1-1.7-.9-2.7.1-.6 0-1.1-.2-1.7-.2-.6-.3-1.2-.1-1.8.3-1.8.4-3.7.1-5.6v-6.1c.2-1.6.2-3.2 0-4.8-.3-1.3.3-2.6 1.5-3.1.1-.1.2-.1.3-.2.9-.5 1.7-.9 2.6 0 .3.1.5.1.8.2 1 .3 1.7 1.2 1.7 2.3.1.9 0 1.8-.1 2.7-.1.5-.1 1.1-.1 1.6v.5c.2.8 1 1.4 1.8 1.2 1.1 0 2.2.2 3.3.4 2.3.5 3.2-.4 2.7-2.7-.3-1.4-.4-2.9-.2-4.4.4-2.5-.7-5-2.9-6.3-.5-.3-.9-.8-1.3-1.1-2.6-2.1-6.1-2.9-9.4-2-1.4.5-2.7 1.1-3.9 1.9-1.1.4-2 1-2.8 1.9-1.8 2.2-2.8 5.1-2.7 8 .2 2.1.1 4.3 0 6.4-.1 1.7-.1 3.5 0 5.2.1 1.5.1 3.1.1 4.6 0 2.3 0 4.5.2 6.8.1 1.2.6 2.3 1.4 3.2l.9.9c1.7 3.3 5.3 2.9 8 4.1 2.6-.1 5.2-.7 7.7-1.7.6-.4.9-.6 1.2-.9zm69.9-11.2c1-.7 2.1-.5 3.2-.4.3 0 .7.1 1 .1.7 0 .7.6.6 1.3-.2 1.5.1 2.9 1 4.1 1 1.4 2.8 2 4.5 1.3 2.4-.5 2.7-3.6 1.9-5.5-.9-2.1-2.5-3.8-4.4-4.8-2.2-1.3-4.2-2.9-6.1-4.6-1.9-1.9-3.2-4.3-3.7-6.9-.7-3-.1-6.3 1.6-8.9 1.7-2.6 4.5-4.3 7.6-4.6 1.7-.2 3.4 0 5 .3 4.1.9 6.2 3.7 7.2 7.6.5 1.3.7 2.7.5 4.1 0 1-.8 1.9-1.8 1.9h-.2c-1.5-.6-3-.2-4.5-.7-.1 0-.1 0-.2-.1-.4-.1-.8-.2-.7-.8.2-3.3-.6-6.2-4.5-5.4-1.8.4-2.9 2.2-2.6 4 .1.6.4 1.1.7 1.5 1.2 1.5 2.7 2.9 4.3 4 1.5 1.3 3.1 2.3 4.6 3.5 2 1.7 3.6 3.9 4.6 6.4.8 1.8 1 3.9.4 5.8-.2.5-.3 1-.3 1.5-.1 1.9-1 3.7-2.5 4.9-.3.2-.5.5-.8.7-1.6 1.8-3.9 2.8-6.3 2.7-2.6.2-5.3-.2-7.8-.9-.3 0-.5-.1-.7-.3-.8-1.3-2.1-2.3-2.8-3.6-1-1.5-1.5-3.3-1.3-5.1.1-.6.1-1.2 0-1.9 0-1.6.2-1.9 1.7-1.9.3.5.6.6.8.7zM71.2 30.9c-.1-1.4-.2-2.9-.2-4.3s.1-2.8.1-4.3c-.1-1.1-.3-1.2-1.3-1.1-1.8.2-3.5.2-5.3 0-1.7-.1-2.1.2-2.2 1.9-.2 1.6 0 3.2.1 4.9.2 2.2.3 4.5-.2 6.7 0 .4.1.8.3 1.2.2.5.3.9.5 1.4v.3c0 .2-.1.3-.2.4-.1.1-.3.2-.4.2-1.8-.3-3.7-.3-5.5.1-.8.2-1.6-.3-1.8-1.1 0-1.5-.1-2.9-.3-4.4.2-1.8.4-3.6.4-5.4-.1-1 0-2 0-3 0-.7.1-1.3.1-2v-.1c.1-.5-.3-1.1-.8-1.2-.8-.2-1.6-.1-2.5-.1-1 .1-2 .2-3.1-.3-.5 0-1 .1-1.5.3h-.7c-.2.1-.4.3-.5.5-.1.2-.1.5 0 .7.1 1.4.1 2.8 0 4.2-.2.6-.2 1.1-.2 1.6.3.6.2 1.3.2 1.9 0 .6 0 1.2.2 1.6.4.8.2 1.4-.1 2-.1.4-.3.7-.3 1.1v1.3c-.1 1.8-.1 3.5 0 5.3 0 2 0 4-.1 6 0 1 .1 2 .2 3 .1 1.3.2 2.5.1 3.8-.1 2.1-.1 4.2 0 6.3 0 1.6 1.8 1.8 1.8 1.8h5c.8 0 1.4-.6 1.5-1.4.3-3 .3-6 0-9-.3-1.2-.2-2.4.2-3.5.3-.5.3-1.1 0-1.6-.4-.7 0-1 .7-1 2.2.2 4.3.1 6.5-.2.3-.1.6 0 .8.2.2.2.2.5.1.8-.2 1-.3 2.1-.3 3.1.2 1.1.3 2.2.3 3.2-.3 1.5-.2 2.9-.2 4.4 0 1.1 0 2.2-.1 3.2-.1 1.6.3 2 1.7 2 1.8 0 3.7 0 5.5-.1 1.2-.1 1.7-1.1 1.2-2.5-.1-.3-.1-.7-.1-1 .1-4 .1-8.1.1-12.1.3-1.1.5-2.3.6-3.5-.3-2.4-.4-4.7-.2-7.1.1-1.7 0-3.4-.1-5.1zm77.1 6.6h-6.4c-.7 0-1-.2-.9-1 .4-2.5.3-5.1-.3-7.6v-.4c0-.2.1-.3.2-.4.1-.1.3-.1.4-.1.4 0 .8.1 1.2.2 1.3.4 2.8.5 4.1.1.8-.1 1.5-.1 2.3 0 .8 0 1.9.1 2.7.2.8 0 1.3-.4 1.1-1.1-.2-1.5-.2-2.9 0-4.4 0-1.7 0-1.7-1.8-1.7-1.3-.1-2.7 0-4 .1-1.9.1-3.7.2-5.6-.1-1.1-.2-2.3-.1-3.4-.1-1 .1-2.1.1-3 0-2-.3-2.6.6-2.3 2.7.3 1.5.3 3 .3 4.6-.1 1.5-.1 2.9 0 4.4.2 2.8.2 5.7.2 8.6v2.2c0 1.1-.1 2.2-.1 3.3-.1 1-.1 2.1-.1 3.1 0 1.7.2 3.1.2 5 .1 1.9.1 3.8 0 5.7-.1.7 0 1.3.9 1.3 1.7.1 3.4 0 5-.1 2-.3 4-.3 6-.1h2c1.4 0 2.8 0 4.3.2 1.4.2 1.8-.5 1.8-2.1-.3-1.3-.4-2.7-.3-4 .1-1-.3-1.2-1.2-1.2h-2.9c-1.9 0-3.8-.1-5.7 0-1.8.1-2 0-1.8-1.9 0-.3.1-.6.1-.8.4-1.4.4-2.8 0-4.2-.1-.5-.1-1-.1-1.4 0-.5.1-1-.1-1.5v-.2c0-.2.1-.3.3-.5.1-.1.3-.2.5-.1.9.1 1.8.1 2.7 0 1.3.1 2.6.1 3.9-.1h.1c.2 0 .3-.1.4-.2.1-.1.2-.3.2-.5-.1-.7.1-1.4.2-2.1.2-.8.3-1.6.2-2.5v-.2c0-.3-.1-.6-.3-.7-.5-.3-.8-.4-1-.4zm24.1-15.9h-6.1c-2.2-.1-4.5-.1-6.8-.2-.8 0-1.3.3-1.1 1.1.2 1.5.2 2.9 0 4.4 0 5.1 0 10.2-.1 15.2.2 2.5.1 5-.1 7.4 0 1.2.1 2.4.4 3.5.1 1.1 0 2.3 0 3.4-.1 1.3-.2 2.7 0 4.1.2 1.2.2 1.3 1.5 1.3 1.8-.2 3.6-.3 5.4-.3.8.1 1-.5 1.1-1.2.1-1.8 0-3.6-.2-5.4v-8.1c-.1-.5-.1-1 0-1.5.5-.8 3.3-.4 4-.2h.2c.8.1 1.4.5 1.9 1.1.5.6.7 1.4.6 2.1.1 1.5 0 3-.1 4.4-.3 2.3-.1 4.6.6 6.8.2 1 .9 1.8 1.9 2.1 1.3.3 2.7.4 4.1.5 3 .3 2.9-.7 2.2-2.8-.1-.4-.3-.8-.5-1.2-.3-.6-.5-1.2-.5-1.9-.2-2.5-.3-5.1-.2-7.6.6-2.6-.7-5.4-3.2-6.5-.6-.3-.7-.6 0-1 2-1 3.2-3.1 2.8-5.4-.1-.7-.1-1.4.1-2.1.5-1.6.2-3.1 0-4.6-.1-.6-.2-1.3-.3-1.9-.1-.8-.3-1.5-.7-2.2-1.5-2-4.1-3.4-6.9-3.3zM89.1 54c-1 .1-2 .2-3 .2-.7-.1-1.3.4-1.4 1.1v.1c-.3 1.5-.4 2.9-.5 4.4 0 2-.2 2.2-2.2 2.1-1.7.2-3.3.2-5 0-.5-.1-.8-.5-.7-1 0-.9.1-1.8.3-2.7.7-1.9 1.1-4 1.1-6 0-.5.1-1 .3-1.4.7-1.7 1.2-3.5 1.3-5.4 0-1.6.3-3.2 1.1-4.6.3-.7.4-1.5.4-2.3.8-4.2 1.7-8.3 2.6-12.5.5-1.2.7-2.6.6-3.9-.3-.7.5-.7 1-.7h4.3c.8.1 1.5.1 2.3 0 1.7-.3 2.1 0 2.3 1.7.5 1.9.8 3.8.8 5.8.1.8.3 1.6.7 2.4.6 1.9.4 4 .9 5.9.6 1.9 1.1 3.9 1.4 6 .2 2 .6 4 1.3 6 .1.4.1.9 0 1.3 0 1 .2 2 .6 2.8.5 1 .8 2.1.7 3.2-.2 1.3 0 2.7.7 3.8.6 1.1.3 1.3-.9 1.6-1.4.2-2.9.1-4.3-.2-.3-.1-.7 0-1.1 0-.6.1-1.1.2-1.6-.2-.3-.8-.5-1.6-.4-2.4-.5-1.5-.7-3-.6-4.5 0-.5-.2-.6-.6-.6h-2.4zm83.8-18c0-.8 0-1.6-.1-2.4-.1-.9-.1-1.8-.1-2.6.2-.9-.1-1.8-.8-2.4-.7-.6-1.6-.8-2.4-.5-.5.1-.9.2-1.4.2-1.3.1-1.6.4-1.5 1.6-.1 1.7 0 3.3.2 5 .2.7-.1 1.4-.3 2-.3.9-.6 1.7.1 2.3 1.1.4 2.3.4 3.5 0 1.6-.1 2.9-1.5 2.8-3.2zM87.6 47.2c-1.3-.1-1.4-.3-1.3-1.7 0-.3 0-.7.1-1 .8-2.4 1.3-4.9 1.3-7.4v-.8c0-.2.2-.4.4-.4.3 0 .6.1.6.4.1.2.1.4.1.6-.4 1.2-.1 2.3.2 3.4.1.5.3 1 .4 1.5.3 1.7.7 3.4 1.1 5.1.1.6.1.8-.6.6-.7-.2-1.5-.3-2.3-.3zm20 2.4c-.1.1-.1.1-.1-.1l.1.1zm68.5 24.9c.8.2 1.6.3 2.4.1l-.1-.1h1.3c1.5 0 2.2-.4 2.2-1.3s-.6-1.3-2.1-1.5c-1-.1-2 0-3.1.1-1 .1-2.1.2-3.1.1-2-.2-4-.2-6 0-1.4.1-2.8 0-4.1 0-1.5 0-3-.1-4.6 0-1.6.1-3.3.1-4.9 0h-5.2c-1.9 0-3.7.1-5.5 0-2.4-.2-4.8-.2-7.1 0-1.4.2-2.8.2-4.1 0-1.6-.2-3.2-.2-4.8 0-1.3.2-2.6.2-3.9.1-2.8-.1-5.7-.1-8.5-.1-3.2.3-6.4.3-9.6 0-1.6-.4-3.3-.3-4.9.3-.3.1-.7.1-1 0-2.2-.4-4.4-.5-6.6-.3-.5 0-1.1.1-1.6.1-.6.1-1.2.2-1.9.1-1.8-.3-3.7-.4-5.5-.3-3.9.4-7.9.5-11.8.3L51.5 72c-3.6 0-7.2-.2-10.9-.2-2.2-.1-4.5-.1-6.7 0-1.8.2-3.7.2-5.5 0-1.2-.2-2.5-.2-3.7-.1-.4.1-.8.1-1.2 0-1.3-.4-2.6-.5-3.9-.1h-.5c-.9.2-1.5 1-1.3 1.9.2 1.1 1 1 1.7 1h.2c1.9.1 3.8.1 5.6 0 4.1.1 8.4.1 12.4.1 1.6 0 3.2-.1 4.7-.1 2.4-.1 4.8-.2 7.2-.1 4.7.1 9.3.1 14 .1 1.5.1 3.1.1 4.6 0 1.6-.3 3.3-.2 4.9.4.5.2 1 .2 1.4 0 2.2-.6 4.5-.7 6.8-.2 1.4.1 2.8.1 4.1.1.8 0 1.6-.1 2.4-.1 1-.1 2.1-.2 3.1-.1 2.8.3 5.7.3 8.5 0 .6-.1 1.2-.1 1.8 0 1.2.4 2.4.5 3.7.3 3.3-.6 6.6-.7 9.9-.4 2.9.3 5.8.3 8.7-.1 1.4-.3 2.9-.3 4.4 0 1 .2 1.9.2 2.9 0 2-.2 4-.3 6.1-.2 5.6.1 11.3.1 16.9.2 2.8-.2 5.7-.2 8.5 0 .8-.1 1.7-.1 2.5-.1 1.2.3 2.3.2 3.5.1 1-.1 1.9-.2 2.9-.1.9.1 1.9.1 2.9 0 .6-.1 1.3 0 2 .2zM21 75.7h.1c2.5.4 5 .4 7.4-.1.9-.2 1.8-.1 2.7.2.9.2 1.8.2 2.7-.1 2.1-.2 4.3-.2 6.5.2 1 .2 1.9.2 2.9 0 2-.3 4-.4 6.1-.2h2.2c2 0 4.1 0 6.2.1 1.4.1 2.9.1 4.3 0 2.1-.1 4.1-.2 6.2.3 3.3-.3 6.7-.2 10-.1 1.7.1 3.3.1 5 .1 1.6.1 3.2.1 4.7-.3.3-.1.7-.1 1 0 2 .2 4.2.2 6.5.2h3.7c2.7 0 5.2 0 7.8-.1h2c1.4 0 2.7-.1 4.1 0 1.6.1 3.2.1 4.8 0 1.3 0 2.5-.1 3.8 0 1.5.1 3.1.1 4.6 0 1.1-.3 2.2-.4 3.3-.4 1 .1 1.9.2 2.9.3.6.3 1.4.3 2.1 0 .4-.2.9-.2 1.3-.2h4.2c3.5 0 7-.1 10.5.1 2.7.2 5.5.2 8.2 0 2.2-.2 4.4-.1 6.6-.1 1.1 0 2.3.1 3.4.1 1.3 0 2.5 0 3.8.1 2.5.1 5 .2 7.6-.1.4-.1.8 0 1.1.2.3.2.6.5.7.9v.4c-.1.9-.9 1.5-1.7 1.4-2.2-.5-4.5-.6-6.8-.3-2.2-.3-4.3-.2-6.4.3-.3.1-.7.1-1 0-2.3-.6-4.7-.6-7-.1-.6 0-1.1-.1-1.7-.2-.5-.1-1-.2-1.6-.2l-5.9.2c-3 .1-5.9.1-8.9 0h-8.2c-2.4 0-4.8-.1-7.2 0-2.6.1-5.2 0-7.8 0-2.6 0-5.2-.1-7.8 0-3 .3-6 .2-8.9-.1h-.4c-.9.4-1.9.3-2.8.3-.7 0-1.3-.1-2 0-1.2-.1-2.4-.1-3.5 0-1.6.3-3.3.3-4.9 0-1.9-.2-3.8-.1-5.7.4-.3.1-.6.1-.8 0-2.2-.4-4.4-.4-6.5 0-1.1 0-2.2-.1-3.2-.3-2 0-4.1.1-6.1.3-1.1-.1-2.2-.2-3.2-.5-.4-.1-.8-.2-1.2-.1-1.9.3-3.8.2-5.6.2-1.5-.1-3-.1-4.5 0-2.8.2-5.7.2-8.5.1-1.4 0-2.9-.1-4.3-.1l-16.2-.1h-2.1c-.6-.1-1-.6-.9-1.2-.1-.3 0-.5.1-.7.1-.2.4-.4.6-.4h.2l1.4-.4z" fill="#302E3F"/></svg>