<svg width="70" height="70" fill="none" xmlns="http://www.w3.org/2000/svg"><path d="M59.255 33.74c0-.07-.07-.105-.14-.105s-.105.035-.14.105l-1.435 4.69v.07c0 .07.07.14.14.14h2.835c.07 0 .14-.07.14-.14v-.07l-1.4-4.69zm-46.935 0c0-.07-.07-.105-.14-.105s-.105.035-.14.105l-1.435 4.69v.07c0 .07.07.14.14.14h2.835c.07 0 .14-.07.14-.14v-.07l-1.4-4.69z" fill="#fff"/><path d="M0 0v70h70V0H0zm19.46 43.89h-3.71a.236.236 0 01-.21-.14l-.63-1.925a.236.236 0 00-.21-.14H9.695a.236.236 0 00-.21.14l-.7 1.925a.236.236 0 01-.21.14h-3.71a.24.24 0 01-.245-.245v-.07l5.95-14.7a.236.236 0 01.21-.14h2.765c.07 0 .175.035.21.14v.035l5.88 14.7v.105c.07.105-.035.175-.175.175zm3.92-7.63v.105c-.07 2.345 1.75 4.34 4.095 4.41a3.895 3.895 0 003.43-2.065.192.192 0 01.175-.105h3.71a.24.24 0 01.245.245v.105c-1.085 3.185-4.13 5.32-7.49 5.285-4.34 0-7.875-3.5-7.91-7.84 0-4.34 3.5-7.875 7.84-7.91 3.43-.07 6.51 2.1 7.595 5.355v.105c0 .14-.105.245-.245.21H31.15a.192.192 0 01-.175-.105s0-.035-.035-.035a3.907 3.907 0 00-3.465-2.135h-.105c-2.31.07-4.095 2.065-3.99 4.375zm20.72 7.945c-4.34 0-7.875-3.5-7.91-7.875 0-4.34 3.5-7.875 7.875-7.91 3.43-.07 6.51 2.1 7.595 5.355v.105c0 .14-.105.245-.245.21H47.67a.192.192 0 01-.175-.105l-.035-.035a3.907 3.907 0 00-3.465-2.135h-.105c-2.31.105-4.095 2.1-3.99 4.41v.105c-.07 2.345 1.75 4.34 4.095 4.41a3.895 3.895 0 003.43-2.065.192.192 0 01.175-.105h3.71a.24.24 0 01.245.245v.105c-1.05 3.185-4.095 5.32-7.455 5.285zm22.295-.315H62.65a.236.236 0 01-.21-.14l-.63-1.925a.236.236 0 00-.21-.14h-4.97a.236.236 0 00-.21.14l-.7 1.925a.236.236 0 01-.21.14H51.8a.24.24 0 01-.245-.245v-.07l5.95-14.7a.236.236 0 01.21-.14h2.765c.07 0 .175.035.21.14v.035l5.88 14.7v.105c.035.105-.07.175-.175.175z" fill="#fff"/></svg>