<svg width="50" height="50" fill="none" xmlns="http://www.w3.org/2000/svg"><path d="M25.05 50C11.246 50 .05 38.779.074 24.975c0-10.03 6.008-19.091 15.269-23.014 12.735-5.288 27.358.77 32.646 13.53 5.238 12.637-.645 27.11-13.207 32.523A24.812 24.812 0 0125.05 50zm-1.887-28.947h-.397c-1.986.024-3.898.62-5.537 1.737a8.01 8.01 0 00-1.837 11.147 7.435 7.435 0 001.415 1.515c.745.67 1.614 1.216 2.533 1.638a8.948 8.948 0 003.103.695h.422a9.31 9.31 0 005.164-1.588l.422-.274v-4.295a8.437 8.437 0 01-5.214 2.136h-.298a5.2 5.2 0 01-3.773-1.912 4.278 4.278 0 01-.67-4.096 4.492 4.492 0 011.787-2.11 6.5 6.5 0 012.706-.92c.248-.024.497-.024.77-.024a14.41 14.41 0 014.692.993v-3.749a17.374 17.374 0 00-5.288-.893zm1.738-6.604h.422c1.44.074 2.78.695 3.748 1.738a5.72 5.72 0 011.54 3.897v13.878a3.094 3.094 0 003.078 3.079h4.047v-3.948H34.93V20.432c.024-5.313-4.196-9.657-9.484-9.806h-.422a10.58 10.58 0 00-7.473 2.706c-1.614 1.564-2.482 3.748-2.433 5.983h4.32a4.603 4.603 0 011.117-3.203 5.681 5.681 0 014.345-1.663z" fill="#fff"/></svg>