<svg width="195" height="42" fill="none" xmlns="http://www.w3.org/2000/svg"><path d="M52.864 18.803h-3.19L55.82 1.388h3.462l6.107 17.415h-3.345l-1.128-3.311h-6.963l-1.09 3.311zm4.59-13.52l-2.49 7.365h4.98l-2.49-7.364zm8.596 7.131c0-1.948.467-3.507 1.4-4.676.506-.623 1.168-1.09 1.868-1.441a5.727 5.727 0 012.528-.585c1.867 0 3.346.663 4.435 2.026.622.78.972 1.793 1.011 2.767h-3.073c0-.429-.156-.819-.389-1.208-.428-.662-1.05-.974-1.984-.935-.7-.04-1.4.273-1.867.779-.583.623-.856 1.714-.856 3.273 0 1.558.273 2.61.856 3.234.467.545 1.167.818 1.867.818.895 0 1.556-.312 1.984-.974.233-.351.35-.78.389-1.17h3.073a4.72 4.72 0 01-1.011 2.767c-1.09 1.364-2.568 2.026-4.435 2.026-.895 0-1.75-.195-2.528-.584-.7-.351-1.362-.819-1.867-1.442-.934-1.208-1.4-2.766-1.4-4.675zm12.915 0c0-1.948.466-3.507 1.4-4.676.506-.623 1.167-1.09 1.867-1.441a5.727 5.727 0 012.529-.585c1.867 0 3.345.663 4.434 2.026.623.78.973 1.793 1.012 2.767h-3.073c0-.429-.156-.819-.39-1.208-.427-.662-1.05-.974-1.983-.935-.7-.04-1.4.273-1.867.779-.584.623-.856 1.714-.856 3.273 0 1.558.272 2.61.856 3.234.466.545 1.166.818 1.867.818.894 0 1.556-.312 1.984-.974.233-.351.35-.78.388-1.17h3.074a4.72 4.72 0 01-1.012 2.767c-1.09 1.364-2.567 2.026-4.434 2.026-.895 0-1.75-.195-2.529-.584-.7-.351-1.361-.819-1.867-1.442-.933-1.208-1.4-2.766-1.4-4.675zm18.905 6.74c-.895 0-1.75-.195-2.568-.584-.739-.312-1.361-.819-1.867-1.403-.972-1.247-1.478-2.844-1.478-4.753 0-1.91.506-3.507 1.478-4.753a5.034 5.034 0 011.867-1.403c.817-.39 1.673-.585 2.567-.546a5.89 5.89 0 012.568.585c.739.312 1.361.818 1.867 1.402.972 1.247 1.478 2.845 1.478 4.754 0 1.909-.506 3.467-1.478 4.753a5.039 5.039 0 01-1.867 1.403 6.323 6.323 0 01-2.567.545zm.038-10.792c-.739 0-1.439.273-1.945.818-.622.662-.933 1.753-.933 3.234 0 1.48.311 2.571.933 3.234.506.545 1.206.857 1.945.818h.04c.738 0 1.439-.273 1.944-.819.623-.662.934-1.753.934-3.233 0-1.48-.311-2.572-.934-3.234-.544-.545-1.245-.857-1.984-.818zm8.247 6.195V6.024h3.073v7.792c0 1.598.739 2.416 2.217 2.416.584 0 1.167-.234 1.556-.623.623-.585.934-1.52.934-2.883V6.024h3.073v12.78h-2.334l-.35-1.715c-.35.662-.856 1.169-1.517 1.48-.7.351-1.478.546-2.295.546-1.362 0-2.451-.428-3.229-1.247-.739-.818-1.128-1.948-1.128-3.311zm13.926 4.246V6.024h2.567l.233 1.675c.351-.623.895-1.168 1.556-1.48a4.873 4.873 0 012.218-.507c1.361 0 2.411.429 3.189 1.286s1.167 1.948 1.167 3.312v8.493h-3.073v-7.83c0-.78-.155-1.403-.466-1.793-.312-.39-.856-.623-1.634-.623-.973 0-1.712.545-2.217 1.636-.273.623-.428 1.792-.428 3.429v5.181h-3.112zm12.447-10.246V6.024h2.334V2.79l3.073-.779v4.013h3.229v2.533h-3.229v6.272c0 .935.467 1.403 1.44 1.403.661 0 1.322-.039 1.983-.117v2.65c-.855.155-1.75.233-2.645.233-1.283 0-2.217-.35-2.878-1.013-.661-.662-.973-1.636-.973-2.883V8.557h-2.334zm14.938 10.597c-1.479 0-2.646-.39-3.462-1.169a3.78 3.78 0 01-1.245-2.844 3.534 3.534 0 011.206-2.805c.817-.702 1.867-1.091 3.112-1.169l3.812-.273v-.779c0-.623-.156-1.13-.467-1.48-.311-.351-.895-.507-1.712-.507-1.478 0-2.256.584-2.334 1.753h-3.034c.078-1.363.623-2.415 1.595-3.117.973-.7 2.256-1.052 3.773-1.052 2.529 0 4.201.897 4.863 2.65.233.623.389 1.48.35 2.61v4.676c-.039.233.039.428.155.623a.932.932 0 00.545.195l.389-.04v2.3c-.467.233-.972.35-1.478.35h-.039a2.072 2.072 0 01-1.556-.545c-.389-.351-.622-.78-.661-1.286a3.768 3.768 0 01-1.517 1.402 5.514 5.514 0 01-2.295.507zm3.462-6.039l-3.307.234c-.467.039-.894.195-1.245.506-.35.273-.544.702-.505 1.17 0 .428.194.856.544 1.129.35.273.817.429 1.284.429.972 0 1.789-.273 2.373-.78.583-.506.895-1.207.895-2.143l-.039-.545zm6.301 5.688V6.024h2.568l.233 1.675c.35-.623.895-1.168 1.556-1.48.7-.35 1.439-.507 2.217-.507 1.362 0 2.412.429 3.19 1.286s1.167 1.948 1.167 3.312v8.493h-3.073v-7.83c0-.78-.156-1.403-.467-1.793-.311-.39-.856-.623-1.634-.623-.972 0-1.711.545-2.217 1.636-.272.623-.428 1.792-.428 3.429v5.181h-3.112zm13.109-6.389c0-1.948.467-3.507 1.4-4.676.506-.623 1.167-1.09 1.868-1.441a5.725 5.725 0 012.528-.585c1.867 0 3.345.663 4.435 2.026.622.78.972 1.793 1.011 2.767h-3.073c0-.429-.156-.819-.389-1.208-.428-.662-1.05-.974-1.984-.935-.7-.04-1.4.273-1.867.779-.584.623-.856 1.714-.856 3.273 0 1.558.272 2.61.856 3.234.467.545 1.167.818 1.867.818.895 0 1.556-.312 1.984-.974.233-.351.35-.78.389-1.17h3.073a4.723 4.723 0 01-1.011 2.767c-1.09 1.364-2.568 2.026-4.435 2.026-.895 0-1.75-.195-2.528-.584-.701-.351-1.362-.819-1.868-1.442-.933-1.208-1.4-2.766-1.4-4.675zm11.625-6.385h3.384l3.346 9.234 3.189-9.234h3.112l-5.64 14.96c-.817 2.144-2.14 3.196-3.929 3.196a9.67 9.67 0 01-2.373-.312V21.34a13.83 13.83 0 001.712.234c.739 0 1.206-.311 1.478-.974l.739-1.792-5.018-12.78zM51.074 35.985a16.38 16.38 0 01-.428-4.13 16.565 16.565 0 01.428-4.13 6.678 6.678 0 011.712-2.96c1.322-1.325 2.956-1.949 4.94-1.949 1.984 0 3.656.663 4.94 2.026.934.974 1.478 2.221 1.634 3.78h-3.19a3.515 3.515 0 00-.778-1.832c-.583-.7-1.44-1.09-2.645-1.09-1.011-.04-1.984.39-2.684 1.168a3.82 3.82 0 00-.856 1.559 8.087 8.087 0 00-.311 1.636c-.039.429-.039 1.052-.039 1.792s0 1.364.039 1.793c.039.545.156 1.13.311 1.636.156.584.428 1.13.856 1.558a3.71 3.71 0 002.684 1.17c1.167 0 2.023-.352 2.645-1.092a3.19 3.19 0 00.778-1.909h3.19c-.156 1.559-.7 2.844-1.634 3.818a6.576 6.576 0 01-4.94 2.065c-1.984 0-3.618-.662-4.94-1.948-.817-.779-1.4-1.83-1.712-2.96zm15.404 1.325V22.816h3.073v13.948c-.039.312.078.663.233.935.156.195.506.312.973.312h.545v2.61c-.428.078-.895.156-1.362.156-1.089 0-1.945-.272-2.567-.818-.584-.584-.895-1.48-.895-2.65zm11.942 3.623a5.9 5.9 0 01-2.567-.584c-.74-.312-1.362-.818-1.867-1.403-.973-1.246-1.479-2.844-1.479-4.753 0-1.91.506-3.467 1.479-4.753a5.036 5.036 0 011.867-1.403c.817-.39 1.672-.584 2.567-.545.895 0 1.75.194 2.567.584.74.312 1.362.818 1.868 1.403.972 1.247 1.478 2.844 1.478 4.753 0 1.909-.506 3.468-1.478 4.753a5.035 5.035 0 01-1.868 1.403 6.461 6.461 0 01-2.567.545zm0-10.792c-.739 0-1.44.273-1.945.818-.622.663-.933 1.753-.933 3.234 0 1.48.31 2.571.933 3.234.506.545 1.206.857 1.945.818.74 0 1.44-.273 1.945-.818.622-.663.934-1.754.934-3.234s-.312-2.571-.934-3.234c-.506-.545-1.206-.857-1.945-.818zm8.13 6.195v-8.533h3.073v7.793c0 1.636.739 2.415 2.217 2.415.584 0 1.167-.234 1.556-.623.623-.585.934-1.52.934-2.883v-6.702h3.073v12.819h-2.334l-.35-1.715c-.35.663-.856 1.17-1.517 1.48-.7.351-1.478.546-2.295.546-1.362 0-2.451-.428-3.229-1.246-.7-.858-1.128-1.949-1.128-3.351zm18.594 4.558c-1.128 0-2.257-.35-3.112-1.09-1.478-1.247-2.256-3.117-2.256-5.572 0-2.532.778-4.442 2.256-5.727a5.004 5.004 0 013.112-1.052c1.556 0 2.684.39 3.345 1.207v-5.844h3.073v17.806h-2.645l-.195-1.364c-.7 1.09-1.906 1.636-3.578 1.636zm.622-10.87c-.817 0-1.595.35-2.062 1.013-.544.701-.817 1.753-.817 3.117 0 1.403.273 2.455.817 3.156a2.392 2.392 0 002.062 1.013c.7.039 1.4-.234 1.906-.701.661-.663 1.011-1.832 1.011-3.468 0-1.364-.233-2.416-.739-3.117-.505-.662-1.244-1.013-2.178-1.013zM20.85 41.985C9.297 41.946-.04 32.518 0 20.946.039 9.375 9.452-.014 21.044.024a20.942 20.942 0 0119.177 12.78c4.513 10.675-.505 23.025-11.202 27.506-2.568 1.13-5.368 1.675-8.17 1.675zm-1.556-24.311h-.35c-1.79.038-3.384.545-4.668 1.48a6.683 6.683 0 00-1.556 9.312c.35.467.739.935 1.206 1.285.622.585 1.361 1.013 2.14 1.364.816.35 1.71.546 2.606.585h.35a7.592 7.592 0 004.356-1.364l.35-.234V26.48c-1.478 1.169-2.995 1.792-4.395 1.792h-.273a4.255 4.255 0 01-3.19-1.598 3.518 3.518 0 01-.544-3.428c.545-1.364 2.023-2.338 3.773-2.533.195-.038.428-.038.662-.038 1.361 0 2.723.39 3.928.818v-3.078c-1.4-.468-2.878-.702-4.395-.74zm1.44-5.533h.35c1.205.039 2.333.585 3.15 1.48a4.876 4.876 0 011.284 3.273v11.65c0 1.441 1.167 2.571 2.606 2.571h3.384v-3.312h-2.334V17.167c.039-4.48-3.54-8.104-7.974-8.22h-.35c-2.529 0-4.785.817-6.263 2.259-1.322 1.286-2.062 3.039-2.062 5.026h3.618c0-1.091.35-2.104.934-2.688.972-.974 2.1-1.403 3.656-1.403z" fill="#010202"/></svg>